<svg width="56" height="56" viewBox="0 0 56 56" fill="none" xmlns="http://www.w3.org/2000/svg">
<g clip-path="url(#clip0_6_11)">
<path opacity="0.26" d="M44 0H12C5.37258 0 0 5.37258 0 12V44C0 50.6274 5.37258 56 12 56H44C50.6274 56 56 50.6274 56 44V12C56 5.37258 50.6274 0 44 0Z" fill="#EB966A"/>
<path d="M39.3333 12H16C13.2433 12 11 14.2433 11 17V21.7183C11 23.4733 11.6366 25.0683 12.6666 26.295V42C12.6666 42.442 12.8422 42.8659 13.1548 43.1785C13.4674 43.491 13.8913 43.6666 14.3333 43.6666H27.6666C28.1087 43.6666 28.5326 43.491 28.8452 43.1785C29.1577 42.8659 29.3333 42.442 29.3333 42V33.6666H36V42C36 42.442 36.1756 42.8659 36.4881 43.1785C36.8007 43.491 37.2246 43.6666 37.6666 43.6666H41C41.442 43.6666 41.8659 43.491 42.1785 43.1785C42.491 42.8659 42.6666 42.442 42.6666 42V26.2933C43.6966 25.0683 44.3333 23.4733 44.3333 21.7166V17C44.3333 14.2433 42.09 12 39.3333 12ZM41 17V21.7183C41 23.6183 39.585 25.2383 37.8483 25.33L37.6666 25.3333C35.8283 25.3333 34.3333 23.8383 34.3333 22V15.3333H39.3333C40.2533 15.3333 41 16.0816 41 17ZM24.3333 22V15.3333H31V22C31 23.8383 29.505 25.3333 27.6666 25.3333C25.8283 25.3333 24.3333 23.8383 24.3333 22ZM14.3333 17C14.3333 16.0816 15.08 15.3333 16 15.3333H21V22C21 23.8383 19.505 25.3333 17.6666 25.3333L17.485 25.3283C15.7483 25.2383 14.3333 23.6183 14.3333 21.7183V17ZM24.3333 35.3333H17.6666V30.3333H24.3333V35.3333Z" fill="url(#paint0_linear_6_11)"/>
</g>
<defs>
<linearGradient id="paint0_linear_6_11" x1="27.6666" y1="12" x2="27.6666" y2="43.6666" gradientUnits="userSpaceOnUse">
<stop stop-color="#EA9769"/>
<stop offset="1" stop-color="#EA6969"/>
</linearGradient>
<clipPath id="clip0_6_11">
<rect width="56" height="56" fill="white"/>
</clipPath>
</defs>
</svg>
